<?xml version="1.0" encoding="utf-8"?>
<!-- Generator: Adobe Illustrator 16.0.4, SVG Export Plug-In . SVG Version: 6.00 Build 0)  -->
<!DOCTYPE svg PUBLIC "-//W3C//DTD SVG 1.1//EN" "http://www.w3.org/Graphics/SVG/1.1/DTD/svg11.dtd">
<svg version="1.1" id="Layer_1" xmlns="http://www.w3.org/2000/svg" xmlns:xlink="http://www.w3.org/1999/xlink" x="0px" y="0px"
	 width="49.879px" height="72px" viewBox="0 0 49.879 72" enable-background="new 0 0 49.879 72" xml:space="preserve">
<polygon points="13.808,8.665 19.374,0 25.714,4.333 21.417,11.765 "/>
<path d="M24.094,13.033l4.085,1.409c0,0,2.889,0.916,1.057,5.002c-1.832,4.086,6.552-9.511,6.552-9.511l-7.186-4.051L24.094,13.033z
	"/>
<path d="M28.18,28.039l8.666-15.428l6.552,4.579c0,0-3.241,7.327-9.511,13.949C31.069,29.871,28.18,28.039,28.18,28.039z"/>
<polygon points="36.211,32.478 45.511,20.21 49.879,24.869 39.804,35.437 "/>
<polygon points="24.939,24.869 20.571,26.208 23.53,27.823 "/>
<path d="M26.63,21.206l-6.869,1.973l-6.728-5.213c0,0,3.029,5.284-2.325,7.397c5.143,2.958,7.961,3.945,7.961,3.945l12.188,16.274
	l-5.566,3.734l4.65,1.127l1.973,15.781h1.972L33.323,51.71l2.889-2.254l-2.818-2.889l-3.382-8.735l-6.059-6.693l9.299,2.043
	l6.2,5.495l7.468-6.623c0,0-1.127,3.452-1.268,4.438c-0.141,0.986,1.117,7.818-5.495,14.372c-0.846,7.186,0,19.938,0,19.938
	L14.724,72l2.254-20.923L0,27.823l10.638-17.396l16.837,6.411L26.63,21.206z"/>
</svg>
